# Blender v2.90.1 OBJ File: ''
# www.blender.org
mtllib garen_base_q_impact.mtl
o garen_base_q_impact
v 1.109000 3.911100 -0.171999
v -1.152000 3.992100 -0.073399
v 0.736300 0.410700 0.029400
v -1.025100 0.473400 0.106500
vt 0.000000 0.000000
vt 1.000000 0.000000
vt 0.000000 1.000000
vt 1.000000 1.000000
vn 0.0454 0.0526 0.9976
vn 0.0455 0.0526 0.9976
usemtl Default_OBJ
s off
f 1/1/1 2/2/1 3/3/1
f 3/3/2 2/2/2 4/4/2
o garen_base_q_impact.001
v 1.109000 3.911100 -0.171999
v -1.152000 3.992100 -0.073399
v 0.736300 0.410700 0.029400
v -1.025100 0.473400 0.106500
vt 0.000000 0.000000
vt 1.000000 0.000000
vt 0.000000 1.000000
vt 1.000000 1.000000
vn 0.0454 0.0526 0.9976
vn 0.0455 0.0526 0.9976
usemtl Default_OBJ.002
s off
f 5/5/3 6/6/3 7/7/3
f 7/7/4 6/6/4 8/8/4
